<svg width="243" height="91" viewBox="0 0 243 91" fill="none" xmlns="http://www.w3.org/2000/svg">
<path d="M30.4 89.9C38.6 71.4 50.6 43.8 54.7 34.3C57.7 27.4 60.5 22.2 63.2 18.7C72.3 7.3 86.3 0.399997 101 0.199997C101.3 0.199997 101.4 0.299997 101.3 0.699997L61.9 89.7C61.7 90.1 61.3 90.4 60.8 90.4H30.6C30.4 90.4 30.3 90.3 30.3 90.1C30.4 90 30.4 90 30.4 89.9Z" fill="#005BAA"/>
<path d="M27.6 88.5C9.6 68.6 3.9 40.9 0.599998 14.2C0.599998 14 0.699998 13.9 0.799998 13.9C0.899998 13.9 0.999998 13.9 0.999998 14.1C4.1 29.7 15.7 40 30.4 44.6C36.5 46.6 41 50.1 40.9 56.8C40.9 58.8 40.3 61.1 39.1 63.8C35.5 71.8 31.8 80.1 28.1 88.5C28 88.6 27.9 88.7 27.7 88.6C27.7 88.5 27.6 88.5 27.6 88.5Z" fill="#F37021"/>
<path d="M118.8 38.4H127.7C127.9 38.4 128.1 38.6 128.1 38.8V88.3C128.1 88.5 127.9 88.7 127.7 88.7H118.8C118.6 88.7 118.4 88.5 118.4 88.3V38.8C118.5 38.6 118.6 38.4 118.8 38.4Z" fill="#005BAA"/>
<path d="M162.5 39.1H172C172.2 39.1 172.3 39.2 172.3 39.4V88.3C172.3 88.5 172.2 88.6 172 88.6H162.8C162.7 88.6 162.6 88.5 162.5 88.5L142 56.4C141.9 56.3 141.7 56.2 141.6 56.3C141.5 56.4 141.5 56.5 141.5 56.6V88.4C141.5 88.6 141.4 88.7 141.2 88.7H132.2C132 88.7 131.9 88.6 131.9 88.4V39.5C131.9 39.3 132 39.2 132.2 39.2H142.6C142.7 39.2 142.8 39.3 142.9 39.4L161.8 70C161.9 70.1 162.1 70.2 162.2 70.1C162.3 70 162.3 70 162.3 69.8L162.1 39.6C162.1 39.3 162.3 39.1 162.5 39.1Z" fill="#005BAA"/>
<path d="M222.5 59.4C222.6 64.7 222.6 70.1 222.5 75.4C222.5 79.1 225.1 81.7 228.9 81.1C231.5 80.6 233 78.8 233.4 75.7C233.4 75.5 233.6 75.3 233.8 75.3L242.4 75.4C242.6 75.4 242.7 75.5 242.7 75.7C242.3 80.5 240.7 84 237.7 86.4C232.7 90.5 223.7 90.6 218.5 87.1C214.7 84.6 212.8 80.7 212.7 75.6C212.5 64.5 212.5 53.4 212.6 42.2C212.6 42 212.7 41.9 212.9 41.9L222.4 42C222.5 42 222.6 42.1 222.6 42.2V50.4C222.6 50.8 223 51.2 223.4 51.2L234 51.1C234.4 51.1 234.6 51.3 234.6 51.7V58.4C234.6 58.7 234.4 58.9 234.1 58.9L223.2 58.8C222.7 58.8 222.5 59 222.5 59.4Z" fill="#005BAA"/>
<path d="M105.2 85.9C105.2 85.8 105.1 85.7 104.9 85.7C104.8 85.7 104.8 85.7 104.8 85.8C101.2 88.8 96.9 90 91.8 89.6C85 89 80.9 84.9 81.5 77.9C82 72.2 85.3 68.8 91.3 67.6C94.3 67 97.3 66.5 100.2 66C101.3 65.8 102.4 65.4 103.5 64.9C103.8 64.7 104.1 64.5 104.2 64.1C105.5 60.3 102.5 58.6 99.3 58.6C94.7 58.5 93.3 59.3 91.7 63.6C91.6 63.9 91.3 64 91 64H83.3C83 64 82.7 63.7 82.7 63.4C82.7 63.4 82.7 63.4 82.7 63.3C83.5 54.7 89.2 51 97.3 51.1C99.2 51.1 101 51.2 102.7 51.3C111.7 51.8 114.7 58.1 114.7 66.3C114.7 74.6 114.7 82 114.6 88.4C114.6 88.6 114.4 88.9 114.2 88.9C111.5 88.7 108.8 88.7 106.1 88.9C105.7 88.9 105.4 88.7 105.4 88.3L105.2 85.9ZM104.5 71.2C101.7 72.2 98.7 73 95.6 73.5C90.8 74.3 89.4 82.3 95.3 82.4C99.5 82.5 102.4 81 104 78C105.1 76 104.4 73.7 104.9 71.5C104.9 71.3 104.8 71.2 104.7 71.1C104.6 71.2 104.5 71.2 104.5 71.2Z" fill="#005BAA"/>
<path d="M184.6 73.2C185.1 79.2 188.2 82 193.8 81.7C196 81.6 197.7 80.6 198.6 78.9C199 78.1 199.7 77.7 200.6 77.7H207.8C208.9 77.7 209.2 78.2 208.8 79.2C204.6 89.5 193.7 91.7 184.1 88C174.8 84.4 173.3 71.2 175.5 63C176.9 57.7 181.5 52.8 186.7 51.7C188.7 51.3 191.1 51.1 194 51.2C205.8 51.5 209.7 62.1 209.6 72.4C209.6 72.8 209.4 73.1 208.9 73.1L184.7 73C184.8 72.9 184.6 73 184.6 73.2ZM185.1 66.5H199.6C199.7 66.5 199.8 66.4 199.8 66.3V66.2C199.8 62.1 196.5 58.8 192.4 58.7C188.3 58.7 185 62 185 66.1V66.2C185 66.4 185 66.5 185.1 66.5Z" fill="#005BAA"/>
</svg>
