<svg width="116" height="118" viewBox="0 0 116 118" fill="none" xmlns="http://www.w3.org/2000/svg">
<rect width="116" height="118" fill="white"/>
<path d="M38.4 103.7C46.6 85.2 58.6 57.6 62.7 48.1C65.7 41.2 68.5 36 71.2 32.5C80.3 21.1 94.3 14.2 109 14C109.3 14 109.4 14.1 109.3 14.5L69.9 103.5C69.7 103.9 69.3 104.2 68.8 104.2H38.6C38.4 104.2 38.3 104.1 38.3 103.9C38.4 103.8 38.4 103.8 38.4 103.7Z" fill="#0011AC"/>
<path d="M35.6 102.3C17.6 82.4 11.9 54.7 8.6 28C8.6 27.8 8.7 27.7 8.8 27.7C8.9 27.7 9 27.7 9 27.9C12.1 43.5 23.7 53.8 38.4 58.4C44.5 60.4 49 63.9 48.9 70.6C48.9 72.6 48.3 74.9 47.1 77.6C43.5 85.6 39.8 93.9 36.1 102.3C36 102.4 35.9 102.5 35.7 102.4C35.7 102.3 35.6 102.3 35.6 102.3Z" fill="#F5811F"/>
</svg>
