<svg width="243" height="91" viewBox="0 0 243 91" fill="none" xmlns="http://www.w3.org/2000/svg">
<path d="M29.8 89.7C38 71.2 50 43.6 54.1 34.1C57.1 27.2 59.9 22 62.6 18.5C71.7 7.1 85.7 0.2 100.4 0C100.7 0 100.8 0.1 100.7 0.5L61.3 89.5C61.1 89.9 60.7 90.2 60.2 90.2H30C29.8 90.2 29.7 90.1 29.7 89.9C29.8 89.8 29.8 89.8 29.8 89.7Z" fill="white"/>
<path d="M27 88.3C9 68.4 3.3 40.7 0 14C0 13.8 0.0999998 13.7 0.2 13.7C0.3 13.7 0.4 13.7 0.4 13.9C3.5 29.5 15.1 39.8 29.8 44.4C35.9 46.4 40.4 49.9 40.3 56.6C40.3 58.6 39.7 60.9 38.5 63.6C34.9 71.6 31.2 79.9 27.5 88.3C27.4 88.4 27.3 88.5 27.1 88.4C27.1 88.3 27 88.3 27 88.3Z" fill="#F37021"/>
<path d="M118.2 38.2H127.1C127.3 38.2 127.5 38.4 127.5 38.6V88.1C127.5 88.3 127.3 88.5 127.1 88.5H118.2C118 88.5 117.8 88.3 117.8 88.1V38.6C117.9 38.4 118 38.2 118.2 38.2Z" fill="white"/>
<path d="M161.9 38.9H171.4C171.6 38.9 171.7 39 171.7 39.2V88.1C171.7 88.3 171.6 88.4 171.4 88.4H162.2C162.1 88.4 162 88.3 161.9 88.3L141.4 56.2C141.3 56.1 141.1 56 141 56.1C140.9 56.2 140.9 56.3 140.9 56.4V88.2C140.9 88.4 140.8 88.5 140.6 88.5H131.6C131.4 88.5 131.3 88.4 131.3 88.2V39.3C131.3 39.1 131.4 39 131.6 39H142C142.1 39 142.2 39.1 142.3 39.2L161.2 69.8C161.3 69.9 161.5 70 161.6 69.9C161.7 69.8 161.7 69.8 161.7 69.6L161.5 39.4C161.5 39.1 161.7 38.9 161.9 38.9Z" fill="white"/>
<path d="M221.9 59.2C222 64.5 222 69.9 221.9 75.2C221.9 78.9 224.5 81.5 228.3 80.9C230.9 80.4 232.4 78.6 232.8 75.5C232.8 75.3 233 75.1 233.2 75.1L241.8 75.2C242 75.2 242.1 75.3 242.1 75.5C241.7 80.3 240.1 83.8 237.1 86.2C232.1 90.3 223.1 90.4 217.9 86.9C214.1 84.4 212.2 80.5 212.1 75.4C211.9 64.3 211.9 53.2 212 42C212 41.8 212.1 41.7 212.3 41.7L221.8 41.8C221.9 41.8 222 41.9 222 42V50.2C222 50.6 222.4 51 222.8 51L233.4 50.9C233.8 50.9 234 51.1 234 51.5V58.2C234 58.5 233.8 58.7 233.5 58.7L222.6 58.6C222.1 58.6 221.9 58.8 221.9 59.2Z" fill="white"/>
<path d="M104.6 85.7C104.6 85.6 104.5 85.5 104.3 85.5C104.2 85.5 104.2 85.5 104.2 85.6C100.6 88.6 96.3 89.8 91.2 89.4C84.4 88.8 80.3 84.7 80.9 77.7C81.4 72 84.7 68.6 90.7 67.4C93.7 66.8 96.7 66.3 99.6 65.8C100.7 65.6 101.8 65.2 102.9 64.7C103.2 64.5 103.5 64.3 103.6 63.9C104.9 60.1 101.9 58.4 98.7 58.4C94.1 58.3 92.7 59.1 91.1 63.4C91 63.7 90.7 63.8 90.4 63.8H82.7C82.4 63.8 82.1 63.5 82.1 63.2C82.1 63.2 82.1 63.2 82.1 63.1C82.9 54.5 88.6 50.8 96.7 50.9C98.6 50.9 100.4 51 102.1 51.1C111.1 51.6 114.1 57.9 114.1 66.1C114.1 74.4 114.1 81.8 114 88.2C114 88.4 113.8 88.7 113.6 88.7C110.9 88.5 108.2 88.5 105.5 88.7C105.1 88.7 104.8 88.5 104.8 88.1L104.6 85.7ZM103.9 71C101.1 72 98.1 72.8 95 73.3C90.2 74.1 88.8 82.1 94.7 82.2C98.9 82.3 101.8 80.8 103.4 77.8C104.5 75.8 103.8 73.5 104.3 71.3C104.3 71.1 104.2 71 104.1 70.9C104 71 103.9 71 103.9 71Z" fill="white"/>
<path d="M184 73C184.5 79 187.6 81.8 193.2 81.5C195.4 81.4 197.1 80.4 198 78.7C198.4 77.9 199.1 77.5 200 77.5H207.2C208.3 77.5 208.6 78 208.2 79C204 89.3 193.1 91.5 183.5 87.8C174.2 84.2 172.7 71 174.9 62.8C176.3 57.5 180.9 52.6 186.1 51.5C188.1 51.1 190.5 50.9 193.4 51C205.2 51.3 209.1 61.9 209 72.2C209 72.6 208.8 72.9 208.3 72.9L184.1 72.8C184.2 72.7 184 72.8 184 73ZM184.5 66.3H199C199.1 66.3 199.2 66.2 199.2 66.1V66C199.2 61.9 195.9 58.6 191.8 58.5C187.7 58.5 184.4 61.8 184.4 65.9V66C184.4 66.2 184.4 66.3 184.5 66.3Z" fill="white"/>
</svg>
